<svg xmlns="http://www.w3.org/2000/svg" width="64" height="64" viewBox="0 0 64 64" fill="none">
  <defs>
    <linearGradient id="bg" x1="10" y1="8" x2="54" y2="56" gradientUnits="userSpaceOnUse">
      <stop stop-color="#165DFF" />
      <stop offset="1" stop-color="#4080FF" />
    </linearGradient>
    <linearGradient id="accent" x1="21" y1="42" x2="41" y2="28" gradientUnits="userSpaceOnUse">
      <stop stop-color="#7CE7F8" />
      <stop offset="1" stop-color="#C4E1FF" />
    </linearGradient>
  </defs>
  <rect x="6" y="6" width="52" height="52" rx="14" fill="url(#bg)" />
  <path d="M24 18C24 16.8954 24.8954 16 26 16H36.3431C36.8735 16 37.3822 16.2107 37.7574 16.5858L43.4142 22.2426C43.7893 22.6178 44 23.1265 44 23.6569V42C44 43.1046 43.1046 44 42 44H26C24.8954 44 24 43.1046 24 42V18Z" fill="white" fill-opacity="0.96" />
  <path d="M36 16V22C36 23.1046 36.8954 24 38 24H44" fill="#DCEBFF" />
  <path d="M36 16V22C36 23.1046 36.8954 24 38 24H44" stroke="#DCEBFF" stroke-width="2" stroke-linejoin="round" />
  <path d="M29 29H39" stroke="#A8C5FF" stroke-width="2.4" stroke-linecap="round" />
  <path d="M29 34H36" stroke="#A8C5FF" stroke-width="2.4" stroke-linecap="round" />
  <path d="M21 41.5L27.5 35L32 38.5L40.5 30" stroke="url(#accent)" stroke-width="4" stroke-linecap="round" stroke-linejoin="round" />
  <circle cx="21" cy="41.5" r="2.5" fill="#7CE7F8" />
  <circle cx="27.5" cy="35" r="2.5" fill="#A7F3D0" />
  <circle cx="32" cy="38.5" r="2.5" fill="#FFD36C" />
  <circle cx="40.5" cy="30" r="2.5" fill="#FF9F8A" />
</svg>
